{"title":"John Mayer Ft. Katy Perry - Who You Love [Music Video] 720p [Sby","uid":9392561,"size":48417356,"categoryP":"video","categoryS":"music_videos","magnet":"?xt=urn:btih:b3839aa29dfebf79e8ca17b8730b8d5d7d87f483&amp;dn=John+Mayer+Ft.+Katy+Perry+-+Who+You+Love+%5BMusic+Video%5D+720p+%5BSby&amp;tr=udp%3A%2F%2Ftracker.openbittorrent.com%3A80&amp;tr=udp%3A%2F%2Fopen.demonii.com%3A1337&amp;tr=udp%3A%2F%2Ftracker.coppersurfer.tk%3A6969&amp;tr=udp%3A%2F%2Fexodus.desync.com%3A6969","seeders":1,"leechers":1,"uploader":"Sbyky","files":1,"time":1387912216,"description":"\n\nGeneral\nComplete name                            : John Mayer Ft. Katy Perry - Who You Love [Music Video] 720p [Sbyky].mp4\nFormat                                   : MPEG-4\nFormat profile                           : Base Media\nCodec ID                                 : isom\nFile size                                : 46.2 MiB\nDuration                                 : 4mn 11s\nOverall bit rate mode                    : Variable\nOverall bit rate                         : 1 541 Kbps\nEncoded date                             : UTC 2013-12-20 15:38:48\nTagged date                              : UTC 2013-12-20 15:38:48\n\nVideo\nID                                       : 1\nFormat                                   : AVC\nFormat/Info                              : Advanced Video Codec\nFormat profile                           : &lt;a class=&quot;__cf_email__&quot; href=&quot;/cdn-cgi/l/email-protection&quot; data-cfemail=&quot;703d11191e303c435e41&quot;&gt;[email&amp;#160;protected]&lt;/a&gt;&lt;script cf-hash='f9e31' type=&quot;text/javascript&quot;&gt;\n/* &lt;![CDATA[ */!function(){try{var t=&quot;currentScript&quot;in document?document.currentScript:function(){for(var t=document.getElementsByTagName(&quot;script&quot;),e=t.length;e--;)if(t[e].getAttribute(&quot;cf-hash&quot;))return t[e]}();if(t&amp;&amp;t.previousSibling){var e,r,n,i,c=t.previousSibling,a=c.getAttribute(&quot;data-cfemail&quot;);if(a){for(e=&quot;&quot;,r=parseInt(a.substr(0,2),16),n=2;a.length-n;n+=2)i=parseInt(a.substr(n,2),16)^r,e+=String.fromCharCode(i);e=document.createTextNode(e),c.parentNode.replaceChild(e,c)}}}catch(u){}}();/* ]]&gt; */&lt;/script&gt;\nFormat settings, CABAC                   : Yes\nFormat settings, ReFrames                : 3 frames\nCodec ID                                 : avc1\nCodec ID/Info                            : Advanced Video Coding\nDuration                                 : 4mn 11s\nBit rate                                 : 1 413 Kbps\nWidth                                    : 1 280 pixels\nHeight                                   : 720 pixels\nDisplay aspect ratio                     : 16:9\nFrame rate mode                          : Constant\nFrame rate                               : 23.976 fps\nColor space                              : YUV\nChroma subsampling                       : 4:2:0\nBit depth                                : 8 bits\nScan type                                : Progressive\nBits/(Pixel*Frame)                       : 0.064\nStream size                              : 42.3 MiB (92%)\nEncoded date                             : UTC 2013-12-20 15:38:48\nTagged date                              : UTC 2013-12-20 15:38:48\n\nAudio\nID                                       : 2\nFormat                                   : AAC\nFormat/Info                              : Advanced Audio Codec\nFormat profile                           : LC\nCodec ID                                 : 40\nDuration                                 : 4mn 11s\nBit rate mode                            : Variable\nBit rate                                 : 126 Kbps\nChannel(s)                               : 2 channels\nChannel positions                        : Front: L R\nSampling rate                            : 44.1 KHz\nCompression mode                         : Lossy\nDelay relative to video                  : 42ms\nStream size                              : 3.76 MiB (8%)\nEncoded date                             : UTC 2013-12-20 15:37:28\nTagged date                              : UTC 2013-12-20 15:37:28\n\nShared By Sbyky\n","torrent":{"xt":"urn:btih:b3839aa29dfebf79e8ca17b8730b8d5d7d87f483","amp;dn":"John+Mayer+Ft.+Katy+Perry+-+Who+You+Love+%5BMusic+Video%5D+720p+%5BSby","amp;tr":["udp%3A%2F%2Ftracker.openbittorrent.com%3A80","udp%3A%2F%2Fopen.demonii.com%3A1337","udp%3A%2F%2Ftracker.coppersurfer.tk%3A6969","udp%3A%2F%2Fexodus.desync.com%3A6969"],"infoHash":"b3839aa29dfebf79e8ca17b8730b8d5d7d87f483","infoHashBuffer":{"type":"Buffer","data":[179,131,154,162,157,254,191,121,232,202,23,184,115,11,141,93,125,135,244,131]},"announce":[],"urlList":[]}}